<?xml version="1.0" encoding="UTF-8"?>
<svg xmlns="http://www.w3.org/2000/svg" xmlns:xlink="http://www.w3.org/1999/xlink" width="58px" height="54px" viewBox="0 0 58 54" version="1.1">
    <!-- Generator: Sketch 52.6 (67491) - http://www.bohemiancoding.com/sketch -->
    <title>030 - Wallet</title>
    <desc>Created with Sketch.</desc>
    <g id="Page-1" stroke="none" stroke-width="1" fill="none" fill-rule="evenodd">
        <g id="030---Wallet">
            <path d="M52,2.35 L52.0000083,10 L2,8 L49.68,0.37 C50.2597887,0.276020598 50.8515795,0.441651925 51.298348,0.822945736 C51.7451165,1.20423955 52.0016937,1.76264644 52,2.35 Z" id="Path" fill="#A56A43"/>
            <rect id="Rectangle" fill="#F29C1F" x="0" y="8" width="56" height="46" rx="2"/>
            <path d="M43,25 L56,25 C57.1045695,25 58,25.8954305 58,27 L58,35 C58,36.1045695 57.1045695,37 56,37 L43,37 C39.6862915,37 37,34.3137085 37,31 C37,27.6862915 39.6862915,25 43,25 Z" id="Path" fill="#E57E25"/>
            <circle id="Oval" fill="#F3D55B" cx="43" cy="31" r="2"/>
            <path d="M5,13 L3,13 C2.44771525,13 2,12.5522847 2,12 C2,11.4477153 2.44771525,11 3,11 L5,11 C5.55228475,11 6,11.4477153 6,12 C6,12.5522847 5.55228475,13 5,13 Z" id="Path" fill="#F5EFCA"/>
            <path d="M11,13 L9,13 C8.44771525,13 8,12.5522847 8,12 C8,11.4477153 8.44771525,11 9,11 L11,11 C11.5522847,11 12,11.4477153 12,12 C12,12.5522847 11.5522847,13 11,13 Z" id="Path" fill="#F5EFCA"/>
            <path d="M17,13 L15,13 C14.4477153,13 14,12.5522847 14,12 C14,11.4477153 14.4477153,11 15,11 L17,11 C17.5522847,11 18,11.4477153 18,12 C18,12.5522847 17.5522847,13 17,13 Z" id="Path" fill="#F5EFCA"/>
            <path d="M23,13 L21,13 C20.4477153,13 20,12.5522847 20,12 C20,11.4477153 20.4477153,11 21,11 L23,11 C23.5522847,11 24,11.4477153 24,12 C24,12.5522847 23.5522847,13 23,13 Z" id="Path" fill="#F5EFCA"/>
            <path d="M29,13 L27,13 C26.4477153,13 26,12.5522847 26,12 C26,11.4477153 26.4477153,11 27,11 L29,11 C29.5522847,11 30,11.4477153 30,12 C30,12.5522847 29.5522847,13 29,13 Z" id="Path" fill="#F5EFCA"/>
            <path d="M35,13 L33,13 C32.4477153,13 32,12.5522847 32,12 C32,11.4477153 32.4477153,11 33,11 L35,11 C35.5522847,11 36,11.4477153 36,12 C36,12.5522847 35.5522847,13 35,13 Z" id="Path" fill="#F5EFCA"/>
            <path d="M41,13 L39,13 C38.4477153,13 38,12.5522847 38,12 C38,11.4477153 38.4477153,11 39,11 L41,11 C41.5522847,11 42,11.4477153 42,12 C42,12.5522847 41.5522847,13 41,13 Z" id="Path" fill="#F5EFCA"/>
            <path d="M47,13 L45,13 C44.4477153,13 44,12.5522847 44,12 C44,11.4477153 44.4477153,11 45,11 L47,11 C47.5522847,11 48,11.4477153 48,12 C48,12.5522847 47.5522847,13 47,13 Z" id="Path" fill="#F5EFCA"/>
            <path d="M53,13 L51,13 C50.4477153,13 50,12.5522847 50,12 C50,11.4477153 50.4477153,11 51,11 L53,11 C53.5522847,11 54,11.4477153 54,12 C54,12.5522847 53.5522847,13 53,13 Z" id="Path" fill="#F5EFCA"/>
            <path d="M5,51 L3,51 C2.44771525,51 2,50.5522847 2,50 C2,49.4477153 2.44771525,49 3,49 L5,49 C5.55228475,49 6,49.4477153 6,50 C6,50.5522847 5.55228475,51 5,51 Z" id="Path" fill="#F5EFCA"/>
            <path d="M11,51 L9,51 C8.44771525,51 8,50.5522847 8,50 C8,49.4477153 8.44771525,49 9,49 L11,49 C11.5522847,49 12,49.4477153 12,50 C12,50.5522847 11.5522847,51 11,51 Z" id="Path" fill="#F5EFCA"/>
            <path d="M17,51 L15,51 C14.4477153,51 14,50.5522847 14,50 C14,49.4477153 14.4477153,49 15,49 L17,49 C17.5522847,49 18,49.4477153 18,50 C18,50.5522847 17.5522847,51 17,51 Z" id="Path" fill="#F5EFCA"/>
            <path d="M23,51 L21,51 C20.4477153,51 20,50.5522847 20,50 C20,49.4477153 20.4477153,49 21,49 L23,49 C23.5522847,49 24,49.4477153 24,50 C24,50.5522847 23.5522847,51 23,51 Z" id="Path" fill="#F5EFCA"/>
            <path d="M29,51 L27,51 C26.4477153,51 26,50.5522847 26,50 C26,49.4477153 26.4477153,49 27,49 L29,49 C29.5522847,49 30,49.4477153 30,50 C30,50.5522847 29.5522847,51 29,51 Z" id="Path" fill="#F5EFCA"/>
            <path d="M35,51 L33,51 C32.4477153,51 32,50.5522847 32,50 C32,49.4477153 32.4477153,49 33,49 L35,49 C35.5522847,49 36,49.4477153 36,50 C36,50.5522847 35.5522847,51 35,51 Z" id="Path" fill="#F5EFCA"/>
            <path d="M41,51 L39,51 C38.4477153,51 38,50.5522847 38,50 C38,49.4477153 38.4477153,49 39,49 L41,49 C41.5522847,49 42,49.4477153 42,50 C42,50.5522847 41.5522847,51 41,51 Z" id="Path" fill="#F5EFCA"/>
            <path d="M47,51 L45,51 C44.4477153,51 44,50.5522847 44,50 C44,49.4477153 44.4477153,49 45,49 L47,49 C47.5522847,49 48,49.4477153 48,50 C48,50.5522847 47.5522847,51 47,51 Z" id="Path" fill="#F5EFCA"/>
            <path d="M53,51 L51,51 C50.4477153,51 50,50.5522847 50,50 C50,49.4477153 50.4477153,49 51,49 L53,49 C53.5522847,49 54,49.4477153 54,50 C54,50.5522847 53.5522847,51 53,51 Z" id="Path" fill="#F5EFCA"/>
        </g>
    </g>
</svg>
